<svg width="1200" height="630" viewBox="0 0 1200 630" fill="none" xmlns="http://www.w3.org/2000/svg">
  <defs>
    <linearGradient id="bg" x1="600" y1="0" x2="600" y2="630" gradientUnits="userSpaceOnUse">
      <stop stop-color="#0B0B0D"/>
      <stop offset="1" stop-color="#121216"/>
    </linearGradient>
    <radialGradient id="glow" cx="0" cy="0" r="1" gradientUnits="userSpaceOnUse" gradientTransform="translate(590 40) rotate(90) scale(320 720)">
      <stop stop-color="#FFFFFF" stop-opacity="0.14"/>
      <stop offset="1" stop-color="#FFFFFF" stop-opacity="0"/>
    </radialGradient>
  </defs>
  <rect width="1200" height="630" fill="url(#bg)"/>
  <rect width="1200" height="630" fill="url(#glow)"/>
  <g opacity="0.08">
    <path d="M0 90H1200M0 180H1200M0 270H1200M0 360H1200M0 450H1200M0 540H1200" stroke="white"/>
    <path d="M120 0V630M240 0V630M360 0V630M480 0V630M600 0V630M720 0V630M840 0V630M960 0V630M1080 0V630" stroke="white"/>
  </g>
  <rect x="96" y="92" width="1008" height="446" rx="28" fill="white" fill-opacity="0.03" stroke="white" stroke-opacity="0.1"/>
  <text x="132" y="240" fill="white" font-family="Inter, Arial, sans-serif" font-size="86" font-weight="700" letter-spacing="-1.5">
    BPMN.GEN
  </text>
  <text x="132" y="306" fill="white" fill-opacity="0.78" font-family="Inter, Arial, sans-serif" font-size="28" font-weight="500">
    Process stories to valid BPMN maps
  </text>
  <text x="132" y="354" fill="white" fill-opacity="0.62" font-family="Inter, Arial, sans-serif" font-size="22" font-weight="400">
    Turn process stories into valid BPMN maps — without learning BPMN.
  </text>
  <g transform="translate(132 410)">
    <rect width="164" height="42" rx="21" fill="white" fill-opacity="0.94"/>
    <text x="82" y="27" fill="#121216" text-anchor="middle" font-family="Inter, Arial, sans-serif" font-size="16" font-weight="600">
      Try the App
    </text>
  </g>
</svg>
